# xmcd
#
# Track frame offsets:
#	150
#	16316
#	29810
#	43733
#	58362
#	71498
#	86682
#	101758
#	113139
#	128355
#	142425
#	156689
#
# Disc length: 2285 seconds
#
# Revision: 1
# Processed by: cddbd v1.5.1PL0 Copyright (c) Steve Scherf et al.
# Submitted via: audiograbber 1.83.01
#
DISCID=b708eb0c
DTITLE=Πάνος Γαβαλάς - Θέλω να πω τον πόνο μου
DYEAR=1900
DGENRE=
TTITLE0=Δοκομασία
TTITLE1=Θέλω να πω τον πόνο μου
TTITLE2=Πίνω να ξεχνώ
TTITLE3=Να σε ξεχάσω πάσχισα
TTITLE4=Την γυναίκα που γουστάρω
TTITLE5=Ασε με πιά
TTITLE6=Πούναι τα λεφτά που είχα
TTITLE7=Ασε με στην αγκαλιά σου
TTITLE8=Ισοβίτης
TTITLE9=Γιατί με βασανίζεις
TTITLE10=Μη μου θυμίζεται το χτές
TTITLE11=Αχ μαννούλα μου θα τρελλαθώ
EXTD=
EXTT0=
EXTT1=
EXTT2=
EXTT3=
EXTT4=
EXTT5=
EXTT6=
EXTT7=
EXTT8=
EXTT9=
EXTT10=
EXTT11=
PLAYORDER=
